<svg width="24" height="27" viewBox="0 0 24 27" fill="none" xmlns="http://www.w3.org/2000/svg">
<g clip-path="url(#clip0_8_24)">
<path d="M13.2822 1.66027V2.65643C17.0697 3.42586 19.9233 6.77598 19.9233 10.7918V11.7672C19.9233 14.2109 20.8209 16.5612 22.4396 18.3875L22.8236 18.8181C23.2594 19.311 23.3684 20.0063 23.0986 20.6029C22.8288 21.1996 22.2373 21.5835 21.5836 21.5835H1.66032C1.00659 21.5835 0.413612 21.1996 0.145789 20.6029C-0.122033 20.0063 -0.0149094 19.311 0.419474 18.8181L0.804242 18.3875C2.42508 16.5612 3.32059 14.2109 3.32059 11.7672V10.7918C3.32059 6.77598 6.12748 3.42586 9.96167 2.65643V1.66027C9.96167 0.74349 10.7036 0 11.6219 0C12.5403 0 13.2822 0.74349 13.2822 1.66027ZM11.6219 26.5643C10.7399 26.5643 9.89422 26.2167 9.27162 25.5941C8.64902 24.9715 8.3014 24.0791 8.3014 23.2438H14.9425C14.9425 24.0791 14.5949 24.9715 13.9723 25.5941C13.3497 26.2167 12.4573 26.5643 11.6219 26.5643Z" fill="black"/>
</g>
<defs>
<clipPath id="clip0_8_24">
<rect width="23.2438" height="26.5643" fill="white"/>
</clipPath>
</defs>
</svg>
