<svg width="9" height="36" viewBox="0 0 9 36" fill="none" xmlns="http://www.w3.org/2000/svg">
<path d="M4.5 25.3125C2.32523 25.3125 0.5625 27.0773 0.5625 29.25C0.5625 31.4227 2.32523 33.1875 4.5 33.1875C6.67477 33.1875 8.4375 31.4227 8.4375 29.25C8.4375 27.0773 6.67477 25.3125 4.5 25.3125ZM4.5 14.0625C2.32523 14.0625 0.5625 15.8273 0.5625 18C0.5625 20.1727 2.32523 21.9375 4.5 21.9375C6.67477 21.9375 8.4375 20.1727 8.4375 18C8.4375 15.8273 6.67477 14.0625 4.5 14.0625ZM4.5 10.6875C6.67477 10.6875 8.4375 8.92266 8.4375 6.75C8.4375 4.57523 6.67477 2.8125 4.5 2.8125C2.32523 2.8125 0.5625 4.57523 0.5625 6.75C0.5625 8.92266 2.32523 10.6875 4.5 10.6875Z" fill="black"/>
</svg>
