<svg width="12" height="13" viewBox="0 0 12 13" fill="none" xmlns="http://www.w3.org/2000/svg">
<g clip-path="url(#clip0_8_29)">
<path d="M11.6227 4.23008C11.7 4.44844 11.6344 4.69473 11.475 4.85469L10.4602 5.85508C10.486 6.06582 10.5 6.28164 10.5 6.5C10.5 6.71836 10.486 6.93418 10.4602 7.14492L11.475 8.14531C11.6344 8.30527 11.7 8.55156 11.6227 8.76992C11.5196 9.07207 11.3953 9.36406 11.2547 9.64082L11.1446 9.84648C10.9899 10.1258 10.8164 10.3898 10.6266 10.6412C10.486 10.8215 10.2586 10.885 10.0524 10.8139L8.7469 10.3619C8.43284 10.6234 8.06487 10.8418 7.71565 11.0094L7.42268 12.4592C7.37581 12.6877 7.21175 12.8502 6.99612 12.9111C6.67268 12.9695 6.33987 13 5.97893 13C5.66018 13 5.32737 12.9695 5.00393 12.9111C4.78831 12.8502 4.62425 12.6877 4.57737 12.4592L4.2844 11.0094C3.91409 10.8418 3.56722 10.6234 3.25315 10.3619L1.94862 10.8139C1.74143 10.885 1.51292 10.8215 1.37417 10.6412C1.18409 10.3898 1.01065 10.1258 0.855966 9.84648L0.746278 9.64082C0.604013 9.36406 0.480263 9.07207 0.376434 8.76992C0.300497 8.55156 0.364481 8.30527 0.525263 8.14531L1.53917 7.14492C1.51339 6.93418 1.50003 6.71836 1.50003 6.5C1.50003 6.28164 1.51339 6.06582 1.53917 5.85508L0.525263 4.85469C0.364481 4.69473 0.300497 4.45098 0.376434 4.23008C0.480263 3.92793 0.604247 3.63594 0.746278 3.35918L0.855731 3.15352C1.01065 2.87422 1.18409 2.61016 1.37417 2.36006C1.51292 2.17852 1.74143 2.11555 1.94862 2.18715L3.25315 2.63809C3.56722 2.37555 3.91409 2.15719 4.2844 1.99139L4.57737 0.541582C4.62425 0.311035 4.78831 0.127969 5.00393 0.0891211C5.32737 0.0304941 5.66018 0 6.00003 0C6.33987 0 6.67268 0.0304941 6.99612 0.0891211C7.21175 0.127969 7.37581 0.311035 7.42268 0.541582L7.71565 1.99139C8.06487 2.15719 8.43284 2.37555 8.7469 2.63809L10.0524 2.18715C10.2586 2.11555 10.486 2.17852 10.6266 2.36006C10.8164 2.61016 10.9899 2.87422 11.1446 3.15352L11.2547 3.35918C11.3953 3.63594 11.5196 3.92793 11.6227 4.23008ZM6.00003 8.53125C7.03597 8.53125 7.87503 7.62227 7.87503 6.47715C7.87503 5.37773 7.03597 4.4459 6.00003 4.4459C4.96409 4.4459 4.12503 5.37773 4.12503 6.47715C4.12503 7.62227 4.96409 8.53125 6.00003 8.53125Z" fill="black"/>
</g>
<defs>
<clipPath id="clip0_8_29">
<rect width="12" height="13" fill="white"/>
</clipPath>
</defs>
</svg>
