<svg width="25" height="25" viewBox="0 0 25 25" fill="none" xmlns="http://www.w3.org/2000/svg">
<g clip-path="url(#clip0_8_33)">
<path d="M24.0087 8.06584C24.1685 8.4822 24.0329 8.95182 23.7037 9.25683L21.6074 11.1644C21.6606 11.5662 21.6897 11.9777 21.6897 12.3941C21.6897 12.8105 21.6606 13.222 21.6074 13.6238L23.7037 15.5313C24.0329 15.8364 24.1685 16.306 24.0087 16.7223C23.7957 17.2985 23.5391 17.8552 23.2486 18.383L23.0211 18.7751C22.7015 19.3077 22.3433 19.8112 21.9511 20.2905C21.6606 20.6342 21.191 20.7553 20.7649 20.6197L18.0683 19.7579C17.4195 20.2566 16.6594 20.673 15.938 20.9925L15.3328 23.757C15.236 24.1927 14.8971 24.5025 14.4517 24.6187C13.7836 24.7301 13.0961 24.7882 12.3505 24.7882C11.6921 24.7882 11.0046 24.7301 10.3365 24.6187C9.89107 24.5025 9.55217 24.1927 9.45534 23.757L8.85016 20.9925C8.08521 20.673 7.36868 20.2566 6.71993 19.7579L4.02518 20.6197C3.5972 20.7553 3.12516 20.6342 2.83854 20.2905C2.4459 19.8112 2.08764 19.3077 1.7681 18.7751L1.54152 18.383C1.24765 17.8552 0.992018 17.2985 0.777543 16.7223C0.62068 16.306 0.752851 15.8364 1.08497 15.5313L3.17938 13.6238C3.12613 13.222 3.09853 12.8105 3.09853 12.3941C3.09853 11.9777 3.12613 11.5662 3.17938 11.1644L1.08497 9.25683C0.752851 8.95182 0.62068 8.48705 0.777543 8.06584C0.992018 7.48971 1.24813 6.93294 1.54152 6.40523L1.76762 6.01307C2.08764 5.48051 2.4459 4.977 2.83854 4.50012C3.12516 4.15396 3.5972 4.03389 4.02518 4.17042L6.71993 5.03026C7.36868 4.52965 8.08521 4.11329 8.85016 3.79714L9.45534 1.03268C9.55217 0.593077 9.89107 0.244009 10.3365 0.169935C11.0046 0.0581457 11.6921 0 12.3941 0C13.0961 0 13.7836 0.0581457 14.4517 0.169935C14.8971 0.244009 15.236 0.593077 15.3328 1.03268L15.938 3.79714C16.6594 4.11329 17.4195 4.52965 18.0683 5.03026L20.7649 4.17042C21.191 4.03389 21.6606 4.15396 21.9511 4.50012C22.3433 4.977 22.7015 5.48051 23.0211 6.01307L23.2486 6.40523C23.5391 6.93294 23.7957 7.48971 24.0087 8.06584ZM12.3941 16.2672C14.534 16.2672 16.2672 14.534 16.2672 12.3505C16.2672 10.2542 14.534 8.47736 12.3941 8.47736C10.2542 8.47736 8.52094 10.2542 8.52094 12.3505C8.52094 14.534 10.2542 16.2672 12.3941 16.2672Z" fill="black"/>
</g>
<defs>
<clipPath id="clip0_8_33">
<rect width="24.7882" height="24.7882" fill="white"/>
</clipPath>
</defs>
</svg>
