<svg width="25" height="35" viewBox="0 0 25 35" fill="none" xmlns="http://www.w3.org/2000/svg">
<g clip-path="url(#clip0_8_438)">
<path d="M0 12.8055V12.4164C0 7.72759 2.41318 3.72835 5.70337 2.95828C7.83855 2.44916 10.0979 3.44595 11.6551 5.63607L12.2283 6.43968L12.7585 5.63607C14.3587 3.44595 16.5751 2.44916 18.7533 2.95828C22.0444 3.72835 24.4567 7.72759 24.4567 12.4164V12.8055C24.4567 15.5892 23.6351 18.2523 22.183 20.1506L13.5515 31.4668C13.1932 31.9364 12.7203 32.198 12.2283 32.198C11.7363 32.198 11.2634 31.9364 10.9052 31.4668L2.27323 20.1506C0.823024 18.2523 1.43301e-05 15.5892 1.43301e-05 12.8055H0Z" fill="#FF0000"/>
</g>
<defs>
<clipPath id="clip0_8_438">
<rect width="24.4567" height="34.3444" fill="white"/>
</clipPath>
</defs>
</svg>
