<svg width="25" height="36" viewBox="0 0 25 36" fill="none" xmlns="http://www.w3.org/2000/svg">
<g clip-path="url(#clip0_8_453)">
<path d="M0 13.5801V13.1911C0 8.50225 2.41318 4.50301 5.70337 3.73294C7.83855 3.22381 10.0979 4.22061 11.6551 6.41073L12.2283 7.21434L12.7585 6.41073C14.3587 4.22061 16.5751 3.22381 18.7533 3.73294C22.0444 4.50301 24.4567 8.50225 24.4567 13.1911V13.5801C24.4567 16.3639 23.6351 19.0269 22.183 20.9253L13.5515 32.2415C13.1932 32.711 12.7203 32.9726 12.2283 32.9726C11.7363 32.9726 11.2634 32.711 10.9052 32.2415L2.27323 20.9253C0.823024 19.0269 1.43301e-05 16.3639 1.43301e-05 13.5801H0Z" fill="#FF0000"/>
</g>
<defs>
<clipPath id="clip0_8_453">
<rect width="24.4567" height="34.3444" fill="white" transform="translate(0 0.774658)"/>
</clipPath>
</defs>
</svg>
