<svg width="29" height="25" viewBox="0 0 29 25" fill="none" xmlns="http://www.w3.org/2000/svg">
<g clip-path="url(#clip0_8_275)">
<path d="M27.7783 7.00685L20.4102 0.258808C19.7656 -0.330694 18.75 0.148407 18.75 1.06642V4.68752C11.7773 4.76711 6.25 6.15724 6.25 12.7246C6.25 15.376 7.96875 18.0029 9.86719 19.375C10.46 19.8038 11.3037 19.2657 11.085 18.5713C9.11621 12.3145 12.5 10.9375 18.75 10.8936V14.5166C18.75 15.4356 19.7676 15.9126 20.4111 15.3228L27.7793 8.57473C28.2422 8.19338 28.2422 7.43166 27.7783 7.00685ZM20.3125 18.75C19.4497 18.75 18.75 19.4497 18.75 20.3125V21.8311L3.125 21.831V6.25002H4.6875C5.55029 6.25002 6.25 5.5508 6.25 4.68752C6.25 3.82424 5.55176 3.12502 4.6875 3.12502H3.125C1.39893 3.12502 0 4.52394 0 6.25002V21.8311C0 23.5567 1.39893 24.9561 3.125 24.9561L18.75 24.956C20.4761 24.956 21.875 23.5566 21.875 21.831V20.3125C21.875 19.4483 21.1768 18.75 20.3125 18.75Z" fill="black"/>
</g>
<defs>
<clipPath id="clip0_8_275">
<rect width="28.125" height="25" fill="white"/>
</clipPath>
</defs>
</svg>
