<svg width="36" height="32" viewBox="0 0 36 32" fill="none" xmlns="http://www.w3.org/2000/svg">
<g filter="url(#filter0_d_8_198)">
<path d="M18 0L21.1432 8.98278H31.3148L23.0858 14.5344L26.229 23.5172L18 17.9656L9.77101 23.5172L12.9142 14.5344L4.68521 8.98278H14.8568L18 0Z" fill="#FAB957"/>
<path d="M18 1.51388L20.6713 9.14792L20.7884 9.48278H21.1432H29.6796L22.8062 14.1199L22.4865 14.3356L22.6139 14.6996L25.2593 22.2599L18.2796 17.5511L18 17.3624L17.7204 17.5511L10.7407 22.2599L13.3861 14.6996L13.5135 14.3356L13.1938 14.1199L6.32036 9.48278H14.8568H15.2116L15.3287 9.14792L18 1.51388Z" stroke="black"/>
</g>
<defs>
<filter id="filter0_d_8_198" x="0.685181" y="0" width="34.6296" height="31.5172" filterUnits="userSpaceOnUse" color-interpolation-filters="sRGB">
<feFlood flood-opacity="0" result="BackgroundImageFix"/>
<feColorMatrix in="SourceAlpha" type="matrix" values="0 0 0 0 0 0 0 0 0 0 0 0 0 0 0 0 0 0 127 0" result="hardAlpha"/>
<feOffset dy="4"/>
<feGaussianBlur stdDeviation="2"/>
<feComposite in2="hardAlpha" operator="out"/>
<feColorMatrix type="matrix" values="0 0 0 0 0 0 0 0 0 0 0 0 0 0 0 0 0 0 0.25 0"/>
<feBlend mode="normal" in2="BackgroundImageFix" result="effect1_dropShadow_8_198"/>
<feBlend mode="normal" in="SourceGraphic" in2="effect1_dropShadow_8_198" result="shape"/>
</filter>
</defs>
</svg>
