<svg width="27" height="22" viewBox="0 0 27 22" fill="none" xmlns="http://www.w3.org/2000/svg">
<g clip-path="url(#clip0_8_264)">
<path d="M17.55 10.8C14.5673 10.8 12.15 8.38223 12.15 5.4C12.15 2.41777 14.5673 0 17.55 0C20.5327 0 22.95 2.41777 22.95 5.4C22.95 8.38223 20.5327 10.8 17.55 10.8ZM15.4111 12.825H19.6889C23.7275 12.825 27 16.0987 27 20.1361C27 20.9461 26.3452 21.6 25.5378 21.6H9.56391C8.75391 21.6 8.1 20.9461 8.1 20.1361C8.1 16.0987 11.3737 12.825 15.4111 12.825ZM6.78797 13.5H9.90352C7.965 15.0905 6.75 17.4698 6.75 20.1361C6.75 20.6761 6.91031 21.1739 7.17187 21.6H1.35C0.603281 21.6 -4.76837e-07 20.9925 -4.76837e-07 20.212C-4.76837e-07 16.5206 3.02062 13.5 6.78797 13.5ZM8.775 10.8C6.16359 10.8 4.05 8.68641 4.05 6.075C4.05 3.46359 6.16359 1.35 8.775 1.35C9.83433 1.35 10.8017 1.71091 11.5897 2.29964C11.1037 3.23283 10.8 4.27781 10.8 5.4C10.8 6.8985 11.3033 8.27466 12.1327 9.39558C11.2767 10.26 10.0912 10.8 8.775 10.8Z" fill="black"/>
</g>
<defs>
<clipPath id="clip0_8_264">
<rect width="27" height="21.6" fill="white" transform="matrix(-1 0 0 1 27 0)"/>
</clipPath>
</defs>
</svg>
